<?xml version="1.0" encoding="UTF-8" standalone="no" ?>
<!DOCTYPE svg PUBLIC "-//W3C//DTD SVG 1.1//EN" "http://www.w3.org/Graphics/SVG/1.1/DTD/svg11.dtd">
<svg xmlns="http://www.w3.org/2000/svg" xmlns:xlink="http://www.w3.org/1999/xlink" version="1.1" width="640" height="640" viewBox="0 0 640 640" xml:space="preserve">
<desc>Created with Fabric.js 4.6.0</desc>
<defs>
</defs>
<g transform="matrix(1 0 0 1 320.5 318.86)" id="5xbvDQVFUxF1GDz0qaE28"  >
<path style="stroke: none; stroke-width: 1; stroke-dasharray: none; stroke-linecap: butt; stroke-dashoffset: 0; stroke-linejoin: miter; stroke-miterlimit: 4; fill: rgb(255,0,104); fill-rule: nonzero; opacity: 1;" vector-effect="non-scaling-stroke"  transform=" translate(-318, -272.57)" d="M 363.42855 318.00001 L 272.57142 318.00001 L 272.57142 408.85715 L 181.71429 408.85715 L 318.00001 545.14287 L 454.28572999999994 408.85715000000005 L 363.42859999999996 408.85715000000005 z M 545.14285 181.71429 L 536.05715 181.71429 C 540.60002 168.08572 545.14285 154.45716000000002 545.14285 136.28572 C 545.14285 59.05714999999999 486.0857199999999 0 408.85713 0 C 354.34283 0 308.91426 31.8 286.2 77.22857 C 263.4857 59.057140000000004 236.22857 45.42857000000001 204.42856999999998 45.42857000000001 C 140.82856999999998 45.42857000000001 90.85713999999997 95.4 90.85713999999997 159 C 90.85713999999997 168.0857 90.85713999999997 172.62857 90.85713999999997 181.7143 L 90.85713999999997 181.7143 C 40.885709999999975 181.7143 0.000009999999974752427 222.60001 0.000009999999974752427 272.57144 C 0.000009999999974752427 322.54287 40.885709999999975 363.42858 90.85713999999997 363.42858 L 227.14285999999998 363.42858 L 227.14285999999998 272.57144 L 408.85716 272.57144 L 408.85716 363.42858 L 545.14288 363.42858 C 595.1143099999999 363.42858 636.00001 322.54287 636.00001 272.57144 C 636.00001 222.60001 595.1143099999999 181.71429999999998 545.14288 181.71429999999998 z" stroke-linecap="round" />
</g>
</svg>